<?xml version="1.0" encoding="UTF-8"?>
<svg xmlns="http://www.w3.org/2000/svg" xmlns:xlink="http://www.w3.org/1999/xlink" width="250px" height="130px" viewBox="0 0 206 130" version="1.1">
<g id="surface1">
<path style=" stroke:none;fill-rule:nonzero;fill:rgb(100%,18.039216%,9.019608%);fill-opacity:1;" d="M 1.910156 82.046875 L 203.875 82.046875 L 203.875 78.96875 L 1.910156 78.96875 Z M 1.910156 82.046875 "/>
<path style=" stroke:none;fill-rule:nonzero;fill:rgb(17.254902%,18.039216%,20.784314%);fill-opacity:1;" d="M 6.988281 100.339844 L 5.660156 100.339844 L 1.949219 89.515625 L 3.722656 89.515625 L 6.324219 97.390625 L 8.925781 89.515625 L 10.730469 89.515625 Z M 6.988281 100.339844 "/>
<path style=" stroke:none;fill-rule:nonzero;fill:rgb(17.254902%,18.039216%,20.784314%);fill-opacity:1;" d="M 12.332031 100.339844 L 12.332031 89.515625 L 14.042969 89.515625 L 14.042969 100.339844 Z M 12.332031 100.339844 "/>
<path style=" stroke:none;fill-rule:nonzero;fill:rgb(17.254902%,18.039216%,20.784314%);fill-opacity:1;" d="M 17.039062 100.339844 L 17.039062 89.515625 L 24.253906 89.515625 L 24.253906 90.988281 L 18.753906 90.988281 L 18.753906 94.148438 L 23.441406 94.148438 L 23.441406 95.609375 L 18.753906 95.609375 L 18.753906 98.867188 L 24.253906 98.867188 L 24.253906 100.339844 Z M 17.039062 100.339844 "/>
<path style=" stroke:none;fill-rule:nonzero;fill:rgb(17.254902%,18.039216%,20.784314%);fill-opacity:1;" d="M 33.574219 100.339844 L 28.359375 92.722656 L 28.359375 100.339844 L 26.644531 100.339844 L 26.644531 89.515625 L 28.21875 89.515625 L 33.429688 97.117188 L 33.429688 89.515625 L 35.148438 89.515625 L 35.148438 100.339844 Z M 33.574219 100.339844 "/>
<path style=" stroke:none;fill-rule:nonzero;fill:rgb(17.254902%,18.039216%,20.784314%);fill-opacity:1;" d="M 45.070312 100.339844 L 39.851562 92.722656 L 39.851562 100.339844 L 38.136719 100.339844 L 38.136719 89.515625 L 39.710938 89.515625 L 44.925781 97.117188 L 44.925781 89.515625 L 46.640625 89.515625 L 46.640625 100.339844 Z M 45.070312 100.339844 "/>
<path style=" stroke:none;fill-rule:evenodd;fill:rgb(17.254902%,18.039216%,20.784314%);fill-opacity:1;" d="M 56.117188 100.339844 L 55.339844 98.164062 L 50.886719 98.164062 L 50.109375 100.339844 L 48.285156 100.339844 L 52.425781 89.515625 L 53.804688 89.515625 L 57.941406 100.339844 Z M 53.15625 91.960938 L 51.394531 96.761719 L 54.867188 96.761719 Z M 53.15625 91.960938 "/>
<path style=" stroke:none;fill-rule:nonzero;fill:rgb(17.254902%,18.039216%,20.784314%);fill-opacity:1;" d="M 63.445312 100.339844 L 63.445312 89.515625 L 65.15625 89.515625 L 65.15625 100.339844 Z M 63.445312 100.339844 "/>
<path style=" stroke:none;fill-rule:nonzero;fill:rgb(17.254902%,18.039216%,20.784314%);fill-opacity:1;" d="M 75.078125 100.339844 L 69.863281 92.722656 L 69.863281 100.339844 L 68.152344 100.339844 L 68.152344 89.515625 L 69.722656 89.515625 L 74.9375 97.117188 L 74.9375 89.515625 L 76.648438 89.515625 L 76.648438 100.339844 Z M 75.078125 100.339844 "/>
<path style=" stroke:none;fill-rule:nonzero;fill:rgb(17.254902%,18.039216%,20.784314%);fill-opacity:1;" d="M 82.636719 100.4375 C 80.941406 100.4375 79.722656 100.050781 78.648438 99 L 79.789062 97.921875 C 80.613281 98.71875 81.511719 98.957031 82.671875 98.957031 C 84.148438 98.957031 85 98.347656 85 97.300781 C 85 96.828125 84.863281 96.429688 84.5625 96.175781 C 84.273438 95.910156 83.988281 95.808594 83.324219 95.71875 L 81.992188 95.535156 C 81.070312 95.414062 80.34375 95.109375 79.851562 94.664062 C 79.296875 94.167969 79.023438 93.484375 79.023438 92.601562 C 79.023438 90.714844 80.453125 89.421875 82.800781 89.421875 C 84.289062 89.421875 85.335938 89.785156 86.304688 90.65625 L 85.214844 91.6875 C 84.511719 91.046875 83.707031 90.847656 82.757812 90.847656 C 81.417969 90.847656 80.691406 91.578125 80.691406 92.539062 C 80.691406 92.933594 80.820312 93.285156 81.117188 93.546875 C 81.402344 93.785156 81.863281 93.96875 82.386719 94.042969 L 83.675781 94.222656 C 84.722656 94.378906 85.304688 94.625 85.78125 95.03125 C 86.398438 95.546875 86.699219 96.324219 86.699219 97.253906 C 86.699219 99.246094 85 100.4375 82.636719 100.4375 Z M 82.636719 100.4375 "/>
<path style=" stroke:none;fill-rule:nonzero;fill:rgb(17.254902%,18.039216%,20.784314%);fill-opacity:1;" d="M 92.917969 100.4375 C 90.617188 100.4375 88.871094 98.925781 88.871094 96.691406 L 88.871094 89.515625 L 90.589844 89.515625 L 90.589844 96.613281 C 90.589844 98.058594 91.503906 98.957031 92.917969 98.957031 C 94.328125 98.957031 95.257812 98.058594 95.257812 96.613281 L 95.257812 89.515625 L 96.976562 89.515625 L 96.976562 96.691406 C 96.976562 98.925781 95.214844 100.4375 92.917969 100.4375 Z M 92.917969 100.4375 "/>
<path style=" stroke:none;fill-rule:evenodd;fill:rgb(17.254902%,18.039216%,20.784314%);fill-opacity:1;" d="M 106.023438 100.339844 L 103.652344 95.78125 L 101.503906 95.78125 L 101.503906 100.339844 L 99.796875 100.339844 L 99.796875 89.515625 L 104.175781 89.515625 C 106.3125 89.515625 107.675781 90.832031 107.675781 92.675781 C 107.675781 94.222656 106.691406 95.214844 105.425781 95.546875 L 108.023438 100.339844 Z M 104.042969 90.988281 L 101.503906 90.988281 L 101.503906 94.378906 L 104.042969 94.378906 C 105.183594 94.378906 105.960938 93.753906 105.960938 92.691406 C 105.960938 91.625 105.183594 90.988281 104.042969 90.988281 Z M 104.042969 90.988281 "/>
<path style=" stroke:none;fill-rule:evenodd;fill:rgb(17.254902%,18.039216%,20.784314%);fill-opacity:1;" d="M 116.710938 100.339844 L 115.929688 98.164062 L 111.476562 98.164062 L 110.703125 100.339844 L 108.878906 100.339844 L 113.015625 89.515625 L 114.390625 89.515625 L 118.535156 100.339844 Z M 113.742188 91.960938 L 111.984375 96.761719 L 115.457031 96.761719 Z M 113.742188 91.960938 "/>
<path style=" stroke:none;fill-rule:nonzero;fill:rgb(17.254902%,18.039216%,20.784314%);fill-opacity:1;" d="M 127.109375 100.339844 L 121.890625 92.722656 L 121.890625 100.339844 L 120.179688 100.339844 L 120.179688 89.515625 L 121.75 89.515625 L 126.964844 97.117188 L 126.964844 89.515625 L 128.675781 89.515625 L 128.675781 100.339844 Z M 127.109375 100.339844 "/>
<path style=" stroke:none;fill-rule:nonzero;fill:rgb(17.254902%,18.039216%,20.784314%);fill-opacity:1;" d="M 135.324219 100.4375 C 134.148438 100.4375 133.136719 100.015625 132.355469 99.273438 C 131.246094 98.210938 131.265625 97.007812 131.265625 94.925781 C 131.265625 92.839844 131.246094 91.640625 132.355469 90.574219 C 133.136719 89.835938 134.148438 89.421875 135.324219 89.421875 C 136.734375 89.421875 137.632812 89.90625 138.476562 90.695312 L 137.335938 91.804688 C 136.75 91.246094 136.257812 90.898438 135.324219 90.898438 C 134.660156 90.898438 134.054688 91.140625 133.65625 91.546875 C 133.105469 92.128906 132.996094 92.75 132.996094 94.925781 C 132.996094 97.101562 133.105469 97.726562 133.65625 98.304688 C 134.054688 98.71875 134.660156 98.957031 135.324219 98.957031 C 136.257812 98.957031 136.75 98.605469 137.335938 98.046875 L 138.476562 99.15625 C 137.632812 99.945312 136.734375 100.4375 135.324219 100.4375 Z M 135.324219 100.4375 "/>
<path style=" stroke:none;fill-rule:nonzero;fill:rgb(17.254902%,18.039216%,20.784314%);fill-opacity:1;" d="M 140.824219 100.339844 L 140.824219 89.515625 L 148.03125 89.515625 L 148.03125 90.988281 L 142.535156 90.988281 L 142.535156 94.148438 L 147.226562 94.148438 L 147.226562 95.609375 L 142.535156 95.609375 L 142.535156 98.867188 L 148.03125 98.867188 L 148.03125 100.339844 Z M 140.824219 100.339844 "/>
<path style=" stroke:none;fill-rule:nonzero;fill:rgb(17.254902%,18.039216%,20.784314%);fill-opacity:1;" d="M 161.003906 99.1875 C 160.207031 99.988281 159.167969 100.4375 157.933594 100.4375 C 156.753906 100.4375 155.742188 100.015625 154.960938 99.273438 C 153.851562 98.210938 153.871094 97.007812 153.871094 94.925781 C 153.871094 92.839844 153.851562 91.640625 154.960938 90.574219 C 155.742188 89.835938 156.722656 89.421875 157.933594 89.421875 C 159.460938 89.421875 160.324219 89.878906 161.335938 90.847656 L 160.179688 91.960938 C 159.460938 91.277344 158.945312 90.898438 157.933594 90.898438 C 157.265625 90.898438 156.640625 91.15625 156.25 91.566406 C 155.695312 92.144531 155.585938 92.75 155.585938 94.925781 C 155.585938 97.101562 155.695312 97.726562 156.25 98.304688 C 156.640625 98.71875 157.265625 98.957031 157.933594 98.957031 C 158.675781 98.957031 159.292969 98.6875 159.734375 98.195312 C 160.148438 97.753906 160.289062 97.152344 160.289062 96.472656 L 160.289062 95.882812 L 157.933594 95.882812 L 157.933594 94.488281 L 162 94.488281 L 162 96.113281 C 162 97.511719 161.75 98.421875 161.003906 99.1875 Z M 161.003906 99.1875 "/>
<path style=" stroke:none;fill-rule:evenodd;fill:rgb(17.254902%,18.039216%,20.784314%);fill-opacity:1;" d="M 170.726562 100.339844 L 168.34375 95.78125 L 166.207031 95.78125 L 166.207031 100.339844 L 164.496094 100.339844 L 164.496094 89.515625 L 168.867188 89.515625 C 171.007812 89.515625 172.371094 90.832031 172.371094 92.675781 C 172.371094 94.222656 171.390625 95.214844 170.125 95.546875 L 172.722656 100.339844 Z M 168.742188 90.988281 L 166.207031 90.988281 L 166.207031 94.378906 L 168.742188 94.378906 C 169.882812 94.378906 170.660156 93.753906 170.660156 92.691406 C 170.660156 91.625 169.882812 90.988281 168.742188 90.988281 Z M 168.742188 90.988281 "/>
<path style=" stroke:none;fill-rule:evenodd;fill:rgb(17.254902%,18.039216%,20.784314%);fill-opacity:1;" d="M 181.546875 99.273438 C 180.769531 100.015625 179.773438 100.4375 178.574219 100.4375 C 177.367188 100.4375 176.386719 100.015625 175.601562 99.273438 C 174.496094 98.210938 174.511719 97.007812 174.511719 94.925781 C 174.511719 92.839844 174.496094 91.640625 175.601562 90.574219 C 176.386719 89.835938 177.367188 89.421875 178.574219 89.421875 C 179.773438 89.421875 180.769531 89.835938 181.546875 90.574219 C 182.660156 91.640625 182.632812 92.839844 182.632812 94.925781 C 182.632812 97.007812 182.660156 98.210938 181.546875 99.273438 Z M 180.253906 91.566406 C 179.855469 91.15625 179.238281 90.898438 178.574219 90.898438 C 177.902344 90.898438 177.285156 91.15625 176.890625 91.566406 C 176.335938 92.144531 176.226562 92.75 176.226562 94.925781 C 176.226562 97.101562 176.335938 97.707031 176.890625 98.289062 C 177.285156 98.699219 177.902344 98.957031 178.574219 98.957031 C 179.238281 98.957031 179.855469 98.699219 180.253906 98.289062 C 180.808594 97.707031 180.917969 97.101562 180.917969 94.925781 C 180.917969 92.75 180.808594 92.144531 180.253906 91.566406 Z M 180.253906 91.566406 "/>
<path style=" stroke:none;fill-rule:nonzero;fill:rgb(17.254902%,18.039216%,20.784314%);fill-opacity:1;" d="M 189.078125 100.4375 C 186.78125 100.4375 185.039062 98.925781 185.039062 96.691406 L 185.039062 89.515625 L 186.75 89.515625 L 186.75 96.613281 C 186.75 98.058594 187.667969 98.957031 189.078125 98.957031 C 190.488281 98.957031 191.433594 98.058594 191.433594 96.613281 L 191.433594 89.515625 L 193.140625 89.515625 L 193.140625 96.691406 C 193.140625 98.925781 191.378906 100.4375 189.078125 100.4375 Z M 189.078125 100.4375 "/>
<path style=" stroke:none;fill-rule:evenodd;fill:rgb(17.254902%,18.039216%,20.784314%);fill-opacity:1;" d="M 200.246094 96.085938 L 197.675781 96.085938 L 197.675781 100.339844 L 195.964844 100.339844 L 195.964844 89.515625 L 200.246094 89.515625 C 202.449219 89.515625 203.859375 90.914062 203.859375 92.792969 C 203.859375 94.6875 202.449219 96.085938 200.246094 96.085938 Z M 200.144531 90.988281 L 197.675781 90.988281 L 197.675781 94.597656 L 200.144531 94.597656 C 201.339844 94.597656 202.148438 93.9375 202.148438 92.792969 C 202.148438 91.65625 201.339844 90.988281 200.144531 90.988281 Z M 200.144531 90.988281 "/>
<path style=" stroke:none;fill-rule:nonzero;fill:rgb(0.392157%,33.333333%,68.235294%);fill-opacity:1;" d="M 136.1875 71.292969 L 141.714844 71.292969 L 141.714844 45.21875 L 136.1875 45.21875 Z M 136.1875 71.292969 "/>
<path style=" stroke:none;fill-rule:nonzero;fill:rgb(0.392157%,33.333333%,68.235294%);fill-opacity:1;" d="M 148.6875 71.292969 L 141.796875 62.132812 L 148.574219 53.628906 L 155.257812 53.628906 L 148.425781 62.132812 L 155.332031 71.292969 Z M 148.6875 71.292969 "/>
<path style=" stroke:none;fill-rule:nonzero;fill:rgb(0.392157%,33.333333%,68.235294%);fill-opacity:1;" d="M 120.4375 70.347656 L 120.4375 66.414062 C 121.554688 66.921875 122.582031 67.3125 123.539062 67.597656 C 124.484375 67.878906 125.289062 68.011719 125.925781 68.011719 C 126.8125 68.011719 127.46875 67.894531 127.925781 67.675781 C 128.367188 67.453125 128.585938 67.121094 128.585938 66.671875 C 128.585938 66.296875 128.425781 65.972656 128.082031 65.675781 C 127.75 65.386719 126.992188 64.992188 125.800781 64.496094 C 125.675781 64.445312 125.476562 64.367188 125.203125 64.257812 C 121.8125 62.847656 120.117188 61.042969 120.117188 58.847656 C 120.117188 57.164062 120.746094 55.816406 121.992188 54.796875 C 123.238281 53.78125 124.894531 53.269531 126.953125 53.269531 C 128.058594 53.269531 129.101562 53.394531 130.089844 53.628906 C 131.082031 53.863281 132.03125 54.21875 132.96875 54.691406 L 132.96875 58.582031 C 131.800781 57.964844 130.765625 57.515625 129.847656 57.21875 C 128.9375 56.933594 128.09375 56.796875 127.324219 56.796875 C 126.652344 56.796875 126.140625 56.921875 125.78125 57.152344 C 125.417969 57.386719 125.242188 57.714844 125.242188 58.152344 C 125.242188 58.730469 126.246094 59.429688 128.257812 60.261719 C 129.074219 60.585938 129.71875 60.855469 130.191406 61.0625 C 131.484375 61.625 132.425781 62.292969 133.015625 63.078125 C 133.605469 63.855469 133.898438 64.832031 133.898438 65.984375 C 133.898438 67.804688 133.265625 69.210938 132.003906 70.195312 C 130.742188 71.175781 128.960938 71.667969 126.636719 71.667969 C 125.484375 71.667969 124.390625 71.5625 123.34375 71.34375 C 122.308594 71.125 121.347656 70.789062 120.4375 70.347656 Z M 120.4375 70.347656 "/>
<path style=" stroke:none;fill-rule:evenodd;fill:rgb(0.392157%,33.333333%,68.235294%);fill-opacity:1;" d="M 111.339844 47.902344 C 111.339844 47.070312 111.625 46.363281 112.203125 45.785156 C 112.777344 45.203125 113.492188 44.917969 114.320312 44.917969 C 115.167969 44.917969 115.867188 45.203125 116.441406 45.777344 C 117.019531 46.351562 117.296875 47.050781 117.296875 47.902344 C 117.296875 48.738281 117.019531 49.4375 116.441406 50.007812 C 115.867188 50.582031 115.167969 50.867188 114.320312 50.867188 C 113.492188 50.867188 112.777344 50.582031 112.203125 50.003906 C 111.625 49.421875 111.339844 48.722656 111.339844 47.902344 Z M 117.121094 71.292969 L 111.550781 71.292969 L 111.550781 53.628906 L 117.121094 53.628906 Z M 87.328125 71.292969 L 87.328125 45.214844 L 96.953125 45.214844 C 100.488281 45.214844 103.101562 45.835938 104.789062 47.0625 C 106.480469 48.296875 107.324219 50.195312 107.324219 52.785156 C 107.324219 54.226562 106.945312 55.457031 106.203125 56.484375 C 105.453125 57.515625 104.324219 58.378906 102.773438 59.085938 C 103.425781 59.328125 103.996094 59.714844 104.515625 60.261719 C 105.03125 60.820312 105.484375 61.523438 105.871094 62.371094 L 110.023438 71.292969 L 102.667969 71.292969 L 99.359375 63.78125 C 98.824219 62.589844 98.214844 61.773438 97.53125 61.324219 C 96.847656 60.871094 95.878906 60.648438 94.625 60.648438 C 94.527344 60.648438 94.390625 60.65625 94.238281 60.671875 C 94.070312 60.683594 93.949219 60.691406 93.859375 60.691406 L 93.859375 71.292969 Z M 96.988281 55.917969 C 98.195312 55.917969 99.089844 55.664062 99.683594 55.160156 C 100.273438 54.65625 100.5625 53.898438 100.5625 52.867188 C 100.5625 51.882812 100.261719 51.132812 99.644531 50.621094 C 99.03125 50.109375 98.144531 49.839844 96.988281 49.839844 L 93.859375 49.839844 L 93.859375 55.917969 Z M 96.988281 55.917969 "/>
<path style=" stroke:none;fill-rule:nonzero;fill:rgb(0.392157%,33.333333%,68.235294%);fill-opacity:1;" d="M 70.324219 71.292969 L 70.324219 53.628906 L 75.886719 53.628906 L 75.886719 58.359375 C 76.832031 56.570312 77.738281 55.292969 78.613281 54.515625 C 79.480469 53.734375 80.433594 53.347656 81.457031 53.347656 C 81.964844 53.347656 82.503906 53.457031 83.074219 53.664062 C 83.628906 53.875 84.265625 54.207031 84.957031 54.648438 L 83.476562 59.71875 C 82.914062 59.289062 82.398438 58.96875 81.917969 58.773438 C 81.449219 58.578125 80.992188 58.476562 80.53125 58.476562 C 79.472656 58.476562 78.519531 58.9375 77.6875 59.871094 C 76.851562 60.804688 76.253906 62.082031 75.886719 63.691406 L 75.886719 71.292969 Z M 70.324219 71.292969 "/>
<path style=" stroke:none;fill-rule:evenodd;fill:rgb(0.392157%,33.333333%,68.235294%);fill-opacity:1;" d="M 66.886719 69.363281 C 65.683594 70.140625 64.414062 70.71875 63.074219 71.109375 C 61.742188 71.476562 60.316406 71.667969 58.796875 71.667969 C 55.753906 71.667969 53.375 70.835938 51.644531 69.167969 C 49.921875 67.507812 49.058594 65.203125 49.058594 62.257812 C 49.058594 59.535156 49.90625 57.351562 51.589844 55.71875 C 53.28125 54.085938 55.527344 53.269531 58.335938 53.269531 C 61.101562 53.269531 63.285156 54.15625 64.886719 55.925781 C 66.492188 57.699219 67.289062 60.136719 67.289062 63.25 L 67.289062 63.433594 L 54.796875 63.433594 L 54.796875 63.511719 C 54.796875 64.910156 55.273438 66.023438 56.226562 66.835938 C 57.179688 67.652344 58.492188 68.054688 60.160156 68.054688 C 61.28125 68.054688 62.398438 67.851562 63.519531 67.453125 C 64.628906 67.054688 65.75 66.464844 66.886719 65.679688 Z M 54.832031 60.726562 L 61.6875 60.703125 C 61.585938 59.5625 61.238281 58.671875 60.648438 58.019531 C 60.0625 57.382812 59.300781 57.054688 58.375 57.054688 C 57.414062 57.054688 56.625 57.382812 55.996094 58.019531 C 55.367188 58.671875 54.976562 59.570312 54.832031 60.726562 Z M 54.832031 60.726562 "/>
<path style=" stroke:none;fill-rule:nonzero;fill:rgb(0.392157%,33.333333%,68.235294%);fill-opacity:1;" d="M 35.648438 57.480469 L 33.117188 57.480469 L 33.117188 56.289062 L 40.320312 48.464844 L 41.160156 48.464844 L 41.160156 53.628906 L 47.191406 53.628906 L 47.191406 57.480469 L 41.160156 57.480469 L 41.160156 64.007812 C 41.160156 65.363281 41.347656 66.269531 41.738281 66.71875 C 42.121094 67.171875 42.824219 67.398438 43.84375 67.398438 C 44.335938 67.398438 44.855469 67.332031 45.410156 67.179688 C 45.96875 67.042969 46.554688 66.820312 47.191406 66.523438 L 47.230469 70.683594 C 46.332031 71.015625 45.441406 71.265625 44.546875 71.425781 C 43.652344 71.589844 42.769531 71.667969 41.882812 71.667969 C 39.640625 71.667969 38.042969 71.089844 37.089844 69.933594 C 36.128906 68.78125 35.648438 66.78125 35.648438 63.972656 Z M 35.648438 57.480469 "/>
<path style=" stroke:none;fill-rule:nonzero;fill:rgb(0.392157%,33.333333%,68.235294%);fill-opacity:1;" d="M 13.375 71.292969 L 13.375 53.628906 L 18.90625 53.628906 L 18.90625 55.84375 C 19.773438 54.953125 20.683594 54.296875 21.648438 53.890625 C 22.597656 53.476562 23.695312 53.269531 24.917969 53.269531 C 26.863281 53.269531 28.34375 53.855469 29.375 55.039062 C 30.410156 56.207031 30.917969 57.90625 30.917969 60.105469 L 30.917969 71.292969 L 25.351562 71.292969 L 25.351562 60.871094 C 25.351562 59.621094 25.144531 58.695312 24.753906 58.121094 C 24.34375 57.535156 23.710938 57.242188 22.847656 57.242188 C 22.078125 57.242188 21.363281 57.472656 20.703125 57.941406 C 20.039062 58.425781 19.441406 59.117188 18.90625 60.027344 L 18.90625 71.292969 Z M 13.375 71.292969 "/>
<path style=" stroke:none;fill-rule:nonzero;fill:rgb(0.392157%,33.333333%,68.235294%);fill-opacity:1;" d="M 1.929688 71.292969 L 8.65625 71.292969 L 8.65625 45.21875 L 1.929688 45.21875 Z M 1.929688 71.292969 "/>
<path style=" stroke:none;fill-rule:nonzero;fill:rgb(100%,18.039216%,9.019608%);fill-opacity:1;" d="M 178.644531 45.507812 C 187.917969 43.429688 194.804688 46.765625 199.296875 55.511719 C 200.386719 57.355469 203 68.332031 196.367188 71.242188 C 191.3125 73 186.570312 71.128906 182.140625 65.632812 C 177.703125 59.757812 176.539062 53.046875 178.644531 45.507812 Z M 178.644531 45.507812 "/>
<path style=" stroke:none;fill-rule:nonzero;fill:rgb(100%,18.039216%,9.019608%);fill-opacity:1;" d="M 181.261719 36.046875 C 176.851562 30.304688 170.117188 27.609375 162.355469 27.609375 C 162.101562 27.609375 161.839844 27.617188 161.585938 27.632812 C 161.105469 29 160.769531 30.429688 160.570312 31.910156 C 160.449219 32.847656 160.375 33.804688 160.375 34.78125 C 160.375 40.46875 162.578125 45.648438 166.167969 49.511719 C 169.175781 46.265625 173.160156 43.945312 177.660156 43.035156 C 178.75 40.035156 179.742188 38.183594 181.261719 36.046875 Z M 181.261719 36.046875 "/>
<path style=" stroke:none;fill-rule:nonzero;fill:rgb(0.392157%,33.333333%,68.235294%);fill-opacity:1;" d="M 203.449219 31.910156 C 203.355469 31.191406 203.222656 30.476562 203.058594 29.777344 C 202.882812 29.019531 202.664062 28.277344 202.40625 27.5625 C 202.164062 27.546875 201.917969 27.535156 201.667969 27.535156 C 197.246094 27.535156 193.105469 28.773438 189.582031 30.921875 C 186.496094 32.796875 183.890625 35.378906 181.96875 38.4375 C 181.859375 38.609375 181.746094 38.792969 181.636719 38.972656 C 180.941406 40.148438 180.34375 41.394531 179.859375 42.695312 C 179.964844 42.6875 180.074219 42.679688 180.183594 42.671875 C 180.789062 42.621094 181.394531 42.589844 182.011719 42.589844 C 182.625 42.589844 183.238281 42.621094 183.84375 42.671875 C 183.921875 42.675781 184.003906 42.679688 184.085938 42.691406 C 189.507812 43.207031 194.351562 45.734375 197.855469 49.511719 C 201.445312 45.648438 203.644531 40.46875 203.644531 34.78125 C 203.644531 33.804688 203.574219 32.847656 203.449219 31.910156 Z M 203.449219 31.910156 "/>
<path style=" stroke:none;fill-rule:nonzero;fill:rgb(100%,18.039216%,9.019608%);fill-opacity:1;" d="M 180.707031 66.375 C 175.8125 59.4375 174.484375 52.539062 176.714844 45.683594 C 172.554688 46.589844 169.347656 48.402344 167.09375 51.121094 C 164.382812 54.195312 163.074219 57.136719 162.625 59.824219 C 162.496094 60.523438 162.421875 61.257812 162.421875 62.007812 C 162.421875 62.070312 162.429688 62.292969 162.453125 62.625 C 162.476562 63.152344 162.546875 63.664062 162.648438 64.132812 C 163.152344 66.953125 164.769531 71.554688 169.917969 71.554688 C 170.105469 71.554688 170.296875 71.539062 170.488281 71.523438 C 170.523438 71.515625 170.550781 71.523438 170.589844 71.523438 C 173.3125 71.34375 176.945312 70.148438 180.707031 66.375 Z M 180.707031 66.375 "/>
</g>
</svg>
