<?xml version="1.0" encoding="UTF-8"?>
<svg xmlns="http://www.w3.org/2000/svg" xmlns:xlink="http://www.w3.org/1999/xlink" width="250px" height="130px" viewBox="0 0 160 130" version="1.1">
<g id="surface1">
<path style=" stroke:none;fill-rule:nonzero;fill:rgb(77.254902%,15.686275%,10.980392%);fill-opacity:1;" d="M 30.9375 115.476562 L 30.9375 104.539062 C 37.71875 104.539062 40.214844 104.179688 41.464844 112.605469 L 42.179688 112.605469 L 42.179688 103.28125 L 23.445312 103.28125 L 23.445312 104.539062 L 26.65625 104.539062 L 26.65625 128.746094 L 23.089844 128.746094 L 23.089844 130 L 42.355469 130 L 42.355469 120.136719 L 41.464844 120.136719 C 40.574219 127.667969 38.609375 128.746094 33.257812 128.746094 L 30.761719 128.746094 L 30.761719 117.089844 L 32.1875 117.089844 C 34.507812 117.089844 35.933594 118.523438 36.46875 122.648438 L 37.359375 122.648438 L 37.359375 110.457031 L 36.46875 110.457031 C 36.46875 110.457031 36.289062 115.65625 32.1875 115.65625 L 30.9375 115.65625 Z M 23.265625 115.835938 L 12.742188 115.835938 L 12.742188 117.089844 L 16.308594 117.089844 L 16.308594 125.695312 C 15.773438 127.847656 12.382812 128.746094 11.492188 128.746094 C 4.710938 128.746094 5.25 118.882812 5.25 116.191406 C 5.25 113.863281 5.070312 103.640625 11.492188 103.640625 C 16.128906 103.640625 18.449219 108.125 19.34375 112.25 L 20.054688 112.25 L 20.054688 102.566406 C 20.054688 102.566406 16.84375 104.898438 16.84375 104.71875 C 16.84375 104.71875 15.417969 102.566406 11.3125 102.566406 C 3.464844 102.566406 0.429688 110.457031 0.429688 116.015625 C 0.429688 121.035156 2.75 129.820312 11.3125 129.820312 C 13.988281 129.820312 15.773438 128.386719 16.84375 126.953125 L 20.234375 129.640625 L 20.234375 116.910156 L 23.089844 116.910156 L 23.089844 115.835938 Z M 146.1875 119.957031 C 145.296875 127.488281 143.332031 128.566406 137.980469 128.566406 L 137.625 128.566406 L 137.625 104.539062 L 141.015625 104.539062 L 141.015625 103.28125 L 129.953125 103.28125 L 129.953125 104.539062 L 133.34375 104.539062 L 133.34375 128.746094 L 130.667969 128.746094 L 120.855469 102.566406 L 119.425781 102.566406 C 119.425781 102.566406 111.222656 126.234375 111.222656 126.414062 C 111.222656 126.414062 110.6875 128.386719 109.257812 128.746094 C 108.007812 128.746094 108.1875 128.207031 108.1875 127.847656 L 108.1875 123.1875 C 108.1875 121.929688 108.007812 119.242188 106.9375 117.984375 C 105.511719 116.550781 103.191406 116.550781 103.191406 116.371094 C 103.191406 116.371094 109.257812 115.117188 109.257812 109.378906 C 109.257812 105.253906 106.402344 103.28125 101.765625 103.101562 L 88.5625 103.101562 L 88.5625 104.359375 L 91.953125 104.359375 L 91.953125 128.566406 L 88.5625 128.566406 L 88.5625 129.820312 L 99.445312 129.820312 L 99.445312 128.566406 L 96.054688 128.566406 L 96.054688 116.910156 L 100.515625 116.910156 C 108.367188 117.628906 99.089844 129.820312 109.4375 129.820312 L 115.859375 129.820312 L 115.859375 128.566406 C 115.503906 128.566406 113.183594 128.566406 113.003906 126.953125 C 112.828125 125.695312 114.609375 121.394531 114.609375 121.394531 L 123.53125 121.394531 C 123.53125 121.394531 126.207031 128.566406 126.386719 128.566406 L 123.351562 128.566406 L 123.351562 129.820312 L 147.4375 129.820312 L 147.4375 119.957031 Z M 100.339844 115.65625 L 96.054688 115.65625 L 96.054688 104.539062 L 101.585938 104.539062 C 104.796875 105.074219 104.976562 108.839844 104.976562 109.917969 C 104.976562 112.785156 103.726562 115.65625 100.339844 115.65625 M 115.324219 120.316406 L 119.25 108.839844 L 123.351562 120.316406 Z M 75.363281 104.359375 C 82.140625 104.359375 84.816406 104 85.886719 112.425781 L 86.601562 112.425781 L 86.601562 103.101562 L 59.484375 103.101562 L 59.484375 104.359375 L 60.195312 104.359375 C 61.089844 104.359375 63.410156 104.359375 63.585938 106.511719 L 63.585938 121.929688 L 50.917969 103.101562 L 43.960938 103.101562 L 43.960938 104.359375 L 45.03125 104.359375 C 46.460938 104.359375 48.242188 104.359375 48.421875 106.511719 L 48.421875 126.234375 C 48.421875 128.207031 45.566406 128.925781 44.320312 128.925781 L 44.320312 129.820312 L 53.773438 129.820312 L 53.773438 128.925781 C 52.527344 128.925781 49.671875 128.207031 49.671875 126.234375 L 49.671875 108.839844 C 54.667969 116.015625 64.121094 129.820312 64.300781 129.820312 L 64.835938 129.820312 L 64.835938 106.511719 C 65.015625 104.539062 67.15625 104.359375 68.226562 104.359375 L 71.257812 104.359375 L 71.257812 128.566406 L 67.691406 128.566406 L 67.691406 129.820312 L 86.957031 129.820312 L 86.957031 119.957031 L 86.066406 119.957031 C 85.171875 127.488281 83.210938 128.566406 77.859375 128.566406 L 75.363281 128.566406 L 75.363281 116.910156 L 76.789062 116.910156 C 79.109375 116.910156 80.535156 118.34375 81.070312 122.46875 L 81.960938 122.46875 L 81.960938 110.277344 L 81.070312 110.277344 C 81.070312 110.277344 80.890625 115.476562 76.789062 115.476562 L 75.539062 115.476562 L 75.539062 104.359375 Z M 148.507812 103.101562 L 148.507812 104.539062 L 151.898438 104.539062 L 151.898438 128.566406 L 148.507812 128.566406 L 148.507812 129.820312 L 159.390625 129.820312 L 159.390625 128.566406 L 155.824219 128.566406 L 155.824219 104.539062 L 159.390625 104.539062 L 159.390625 103.101562 Z M 130.667969 86.605469 L 134.058594 85.351562 C 138.875 83.378906 139.585938 82.125 139.230469 78.898438 L 139.230469 65.984375 C 142.796875 75.308594 146.367188 81.765625 153.324219 81.765625 C 154.214844 81.765625 155.289062 81.585938 156.359375 81.40625 L 159.035156 80.867188 L 157.070312 78.71875 C 155.824219 77.460938 155.289062 76.386719 154.574219 75.132812 C 154.214844 74.59375 154.039062 74.054688 153.679688 73.515625 C 152.074219 70.828125 148.152344 69.929688 144.941406 71.367188 C 143.511719 68.496094 142.085938 64.730469 140.300781 60.070312 L 139.945312 59.171875 C 139.585938 58.457031 139.410156 57.738281 139.050781 57.019531 L 139.050781 56.839844 C 137.980469 54.332031 136.734375 52 135.484375 49.667969 C 134.234375 47.515625 132.988281 45.722656 131.558594 44.109375 C 127.8125 39.808594 122.996094 37.117188 117.109375 36.042969 C 113.003906 35.324219 110.152344 35.144531 106.402344 34.964844 C 105.691406 34.964844 104.796875 34.964844 104.085938 34.785156 C 102.480469 34.605469 99.089844 34.425781 95.699219 34.070312 C 93.378906 33.890625 91.238281 33.710938 89.457031 33.53125 C 89.632812 32.992188 89.632812 32.457031 89.632812 31.917969 C 89.632812 31.199219 89.632812 30.484375 89.457031 29.945312 L 113.003906 29.945312 C 119.070312 29.945312 123.53125 27.253906 126.027344 21.875 C 132.09375 21.875 136.375 19.007812 139.050781 13.808594 L 139.945312 13.808594 C 146.1875 13.808594 150.648438 10.9375 153.324219 5.199219 L 154.214844 3.585938 L 74.648438 3.585938 C 69.472656 3.585938 65.015625 6.992188 63.230469 12.371094 L 63.230469 12.550781 C 61.800781 8.785156 59.484375 5.558594 56.273438 3.585938 C 51.8125 0.898438 46.816406 0 42.890625 1.253906 C 41.644531 1.613281 40.214844 2.152344 39.144531 2.867188 C 38.253906 3.585938 36.824219 4.484375 35.933594 5.738281 C 34.863281 6.992188 33.972656 8.605469 33.257812 10.042969 C 32.722656 10.398438 32.367188 10.757812 32.1875 11.117188 L 31.296875 12.910156 L 31.296875 13.089844 C 30.226562 15.601562 28.796875 17.394531 27.726562 18.828125 C 26.65625 20.082031 26.65625 21.339844 26.65625 22.054688 C 26.835938 22.953125 27.191406 23.667969 27.726562 24.207031 C 27.371094 24.746094 27.191406 25.460938 27.191406 26 C 27.191406 28.152344 28.976562 29.765625 31.296875 29.765625 C 32.902344 29.765625 34.328125 29.046875 35.753906 27.972656 C 36.289062 27.613281 37.894531 26.539062 38.429688 26.539062 C 39.144531 26.539062 39.679688 27.074219 39.679688 27.792969 C 39.679688 29.585938 37.539062 30.484375 35.933594 30.484375 L 32.722656 30.839844 C 30.402344 31.019531 29.332031 32.277344 29.332031 33.351562 C 29.332031 34.425781 29.867188 35.144531 30.226562 35.503906 L 30.402344 35.683594 L 31.296875 36.398438 L 27.546875 42.136719 C 25.050781 39.808594 22.195312 38.550781 19.699219 38.371094 C 18.09375 38.371094 16.667969 38.730469 15.59375 39.808594 C 15.238281 40.164062 15.058594 40.34375 14.882812 40.703125 C 12.207031 40.703125 10.066406 42.136719 8.996094 43.75 C 7.746094 45.542969 8.28125 48.59375 9.707031 50.925781 L 0.789062 53.433594 L 0.789062 95.035156 L 159.570312 95.035156 L 159.570312 86.785156 L 130.667969 86.785156 Z M 151.183594 75.308594 C 151.539062 75.847656 151.71875 76.386719 152.074219 76.746094 C 152.433594 77.28125 152.789062 77.820312 153.144531 78.539062 C 150.648438 78.359375 148.6875 76.925781 147.082031 74.414062 C 148.507812 73.695312 150.46875 74.234375 151.183594 75.308594 M 116.75 39.808594 C 121.925781 40.703125 126.027344 43.035156 129.238281 46.621094 C 129.953125 47.339844 130.488281 48.234375 131.203125 49.132812 C 122.640625 48.054688 119.605469 46.800781 114.789062 39.449219 C 115.503906 39.449219 116.039062 39.628906 116.75 39.808594 M 113.003906 27.253906 L 96.769531 27.253906 C 98.199219 26 99.269531 24.386719 100.160156 22.59375 L 122.105469 22.59375 C 120.320312 25.820312 117.285156 27.253906 113.003906 27.253906 M 125.851562 19.367188 L 109.617188 19.367188 C 111.042969 18.109375 112.292969 16.496094 113.183594 14.523438 L 135.128906 14.523438 C 133.34375 17.75 130.308594 19.367188 125.851562 19.367188 M 127.097656 6.992188 L 148.863281 6.992188 C 146.722656 9.863281 143.871094 11.296875 139.765625 11.296875 L 123.53125 11.296875 C 124.957031 10.042969 126.207031 8.605469 127.097656 6.992188 M 38.609375 7.710938 C 39.144531 6.992188 40.039062 6.277344 40.929688 5.558594 C 41.644531 5.019531 42.714844 4.484375 43.785156 4.304688 C 45.390625 3.945312 47.171875 3.945312 48.957031 4.304688 L 43.070312 7.890625 C 42.355469 7.890625 41.644531 7.710938 40.929688 7.710938 C 39.859375 7.710938 38.964844 7.710938 38.253906 7.890625 C 38.429688 7.890625 38.429688 7.890625 38.609375 7.710938 M 31.832031 33.53125 C 31.832031 33.351562 32.007812 33.171875 32.1875 33.171875 L 35.042969 33.351562 C 38.429688 33.171875 42 31.738281 42.355469 28.152344 C 42.355469 25.640625 40.574219 23.308594 38.253906 23.308594 C 37.003906 23.308594 35.398438 24.207031 33.792969 25.28125 C 32.722656 26 31.832031 26.539062 31.296875 26.539062 C 30.9375 26.539062 30.582031 26.179688 30.582031 26 L 30.582031 25.820312 L 32.367188 23.308594 L 30.761719 22.234375 C 30.402344 22.054688 29.867188 21.515625 29.867188 21.339844 C 29.867188 21.160156 30.046875 20.980469 30.046875 20.800781 C 30.761719 20.082031 31.472656 19.1875 32.1875 17.929688 C 32.722656 17.214844 32.902344 16.855469 33.613281 16.855469 C 34.328125 16.855469 35.042969 17.394531 35.042969 18.289062 C 35.042969 18.828125 35.578125 19.1875 36.289062 19.1875 C 37.003906 19.1875 37.359375 18.648438 37.71875 18.289062 C 37.71875 18.289062 39.324219 16.855469 38.429688 16.136719 C 37.539062 15.421875 33.613281 17.035156 34.683594 13.449219 L 35.042969 12.910156 C 35.398438 12.371094 37.359375 10.9375 41.109375 10.9375 C 41.820312 10.9375 42.535156 10.9375 43.425781 11.117188 L 43.960938 11.117188 L 52.167969 6.097656 C 52.167969 6.277344 52.347656 6.457031 52.347656 6.457031 C 52.703125 8.964844 51.277344 11.835938 48.777344 13.269531 L 47.707031 13.808594 L 48.421875 17.574219 C 46.28125 18.289062 44.855469 19.902344 44.855469 21.875 C 44.855469 22.59375 45.03125 23.488281 45.210938 24.386719 C 45.390625 25.640625 45.746094 26.898438 45.746094 28.152344 C 45.746094 32.097656 40.394531 34.605469 35.933594 34.425781 L 35.753906 34.425781 C 35.578125 34.425781 32.722656 34.25 32.007812 33.710938 C 31.832031 33.890625 31.832031 33.710938 31.832031 33.53125 M 11.492188 45.722656 C 12.207031 44.648438 13.632812 43.929688 15.417969 44.109375 L 16.84375 44.289062 L 17.378906 43.035156 C 17.558594 42.675781 17.738281 42.316406 17.914062 42.136719 C 18.273438 41.78125 18.984375 41.601562 19.699219 41.601562 C 21.660156 41.601562 24.160156 43.035156 26.121094 45.1875 C 26.835938 45.902344 27.546875 46.980469 28.085938 47.875 C 28.261719 48.054688 28.261719 48.234375 28.441406 48.414062 C 28.621094 48.59375 28.796875 48.953125 28.796875 48.953125 C 28.796875 49.132812 29.867188 50.566406 29.867188 50.746094 C 30.582031 49.847656 31.296875 48.773438 31.832031 47.875 L 31.832031 47.695312 C 31.652344 47.339844 31.296875 46.800781 31.117188 46.441406 L 30.9375 46.261719 C 30.9375 46.261719 30.761719 46.082031 30.761719 45.902344 C 30.582031 45.542969 30.226562 45.007812 30.046875 44.828125 L 34.328125 38.015625 C 35.398438 38.191406 36.289062 38.191406 36.824219 38.191406 L 37.003906 38.191406 C 43.070312 38.191406 49.3125 34.605469 49.3125 28.867188 L 49.3125 28.691406 C 49.3125 27.074219 48.957031 25.640625 48.777344 24.386719 C 48.601562 23.488281 48.421875 22.773438 48.421875 22.414062 C 48.421875 21.695312 49.3125 20.980469 50.5625 20.980469 L 52.527344 20.980469 L 51.632812 15.957031 C 54.308594 13.984375 56.09375 10.578125 55.914062 7.53125 C 58.949219 9.863281 60.910156 13.808594 61.265625 17.929688 C 61.445312 19.1875 61.089844 20.800781 60.730469 22.59375 L 60.554688 23.308594 C 59.839844 26.179688 58.769531 29.226562 58.234375 30.660156 L 57.699219 31.917969 L 58.949219 32.632812 C 61.089844 33.890625 62.515625 34.785156 62.515625 37.65625 C 62.515625 41.0625 59.484375 43.574219 56.628906 44.109375 L 52.527344 44.828125 L 55.914062 47.160156 C 56.984375 47.875 57.699219 49.132812 57.699219 50.386719 C 57.699219 52.539062 55.914062 54.152344 53.773438 54.152344 L 52.527344 54.152344 L 52.167969 55.226562 C 50.917969 59.171875 49.671875 61.144531 45.390625 61.683594 L 45.390625 55.765625 L 45.210938 52 L 42.535156 54.691406 C 41.644531 55.585938 40.039062 56.304688 38.253906 56.660156 L 38.253906 53.433594 L 19.519531 48.414062 L 12.917969 50.207031 C 11.492188 48.773438 11.136719 46.261719 11.492188 45.722656 M 6.140625 86.605469 L 19.699219 83.019531 L 33.257812 86.605469 Z M 35.042969 83.738281 L 19.519531 79.613281 L 4 83.738281 L 4 55.945312 L 19.519531 51.820312 L 35.042969 55.945312 Z M 42.355469 78.359375 C 40.929688 80.332031 40.75 83.199219 41.820312 86.605469 L 38.429688 86.605469 L 38.429688 60.070312 C 39.679688 59.890625 40.929688 59.53125 42.179688 58.992188 C 42.179688 60.070312 42 61.144531 41.820312 62.21875 C 41.820312 62.578125 41.644531 62.757812 41.644531 63.117188 L 41.285156 65.089844 L 43.25 65.089844 C 46.101562 65.089844 48.242188 64.550781 50.027344 63.835938 L 50.027344 74.953125 C 50.027344 75.308594 49.847656 75.488281 49.492188 75.488281 L 48.957031 75.488281 C 46.101562 75.308594 43.605469 76.386719 42.355469 78.359375 M 78.039062 79.074219 C 76.789062 80.511719 75.71875 82.839844 76.433594 86.605469 L 56.273438 86.605469 C 58.414062 86.425781 60.019531 85.890625 61.089844 84.8125 C 62.335938 83.378906 62.515625 81.585938 62.515625 80.152344 C 62.515625 79.972656 62.695312 79.613281 63.765625 79.074219 L 65.550781 78.359375 L 64.480469 76.746094 C 62.695312 74.054688 63.585938 68.316406 64.121094 65.089844 L 64.300781 65.089844 C 71.078125 65.089844 75.539062 63.65625 80.179688 62.21875 C 81.425781 61.863281 82.675781 61.503906 83.925781 60.964844 C 85.171875 60.425781 85.351562 60.605469 87.136719 60.070312 L 93.738281 71.007812 L 93.738281 71.1875 C 94.449219 72.082031 94.449219 72.800781 93.203125 74.054688 L 89.992188 77.640625 L 84.636719 76.566406 C 82.320312 76.207031 79.644531 77.28125 78.039062 79.074219 M 79.820312 86.605469 C 79.285156 84.277344 79.464844 82.484375 80.535156 81.226562 C 81.605469 79.972656 83.03125 79.792969 84.28125 79.792969 L 90.527344 80.867188 L 91.597656 80.867188 L 96.054688 76.027344 C 96.769531 75.132812 99.089844 72.441406 96.769531 69.035156 L 90.882812 59.351562 C 91.773438 59.171875 92.84375 59.171875 93.738281 59.171875 C 94.628906 59.171875 96.769531 59.171875 99.980469 60.964844 C 100.339844 61.863281 101.050781 63.117188 101.585938 64.550781 C 102.835938 67.0625 104.441406 70.289062 104.796875 71.542969 C 104.976562 71.902344 105.332031 73.160156 103.90625 74.773438 L 92.667969 86.785156 L 79.820312 86.785156 Z M 118.355469 86.605469 L 96.949219 86.605469 L 106.046875 76.925781 C 107.832031 74.953125 108.542969 72.621094 107.652344 70.46875 C 107.296875 69.214844 106.046875 66.703125 104.796875 64.015625 C 108.367188 65.628906 113.898438 67.242188 125.136719 68.136719 C 126.5625 68.316406 126.921875 68.675781 127.097656 69.929688 L 127.632812 74.773438 L 121.746094 76.027344 C 119.785156 76.386719 118.179688 77.640625 117.464844 79.613281 C 116.75 81.765625 117.109375 84.277344 118.355469 86.605469 M 120.675781 80.867188 C 121.035156 79.972656 121.570312 79.433594 122.460938 79.253906 L 131.203125 77.28125 L 130.488281 69.394531 L 130.488281 69.214844 C 130.308594 68.136719 129.597656 65.089844 125.492188 64.730469 C 109.792969 63.476562 106.226562 61.144531 102.300781 58.632812 L 102.121094 58.457031 C 98.019531 55.765625 93.914062 55.765625 93.558594 55.765625 C 89.097656 55.765625 83.566406 57.558594 83.03125 57.738281 C 81.605469 58.097656 80.355469 58.632812 79.109375 58.992188 C 74.113281 60.605469 70.007812 62.042969 62.875 61.683594 L 61.625 61.683594 L 61.265625 62.9375 C 61.089844 63.835938 58.949219 71.902344 60.910156 76.925781 C 59.125 78.359375 59.125 79.792969 59.125 80.152344 C 59.125 81.945312 58.769531 82.304688 58.589844 82.484375 C 57.699219 83.378906 55.023438 83.378906 52.703125 83.378906 L 51.8125 83.378906 L 51.277344 84.097656 C 49.847656 86.070312 46.816406 86.605469 44.855469 86.070312 C 43.960938 83.378906 43.960938 81.40625 44.855469 80.152344 C 45.925781 78.71875 47.886719 78.539062 48.777344 78.539062 L 49.3125 78.539062 C 51.457031 78.539062 53.0625 76.746094 53.0625 74.773438 L 53.0625 60.605469 C 53.773438 59.710938 54.132812 58.457031 54.667969 57.199219 C 58.054688 56.660156 60.730469 53.792969 60.730469 50.207031 C 60.730469 48.773438 60.375 47.515625 59.660156 46.441406 C 62.875 44.828125 65.550781 41.78125 65.550781 37.65625 C 65.550781 33.53125 63.410156 31.558594 61.445312 30.484375 C 61.980469 28.867188 62.875 26.179688 63.585938 23.308594 L 66.261719 13.449219 C 67.511719 9.503906 70.722656 6.992188 74.46875 6.992188 L 122.996094 6.992188 C 120.855469 9.863281 118 11.296875 113.898438 11.296875 L 84.816406 11.296875 L 83.210938 14.523438 L 109.617188 14.523438 C 107.472656 17.75 104.441406 19.367188 100.160156 19.367188 L 81.070312 19.367188 L 79.464844 22.59375 L 96.414062 22.59375 C 94.273438 25.820312 91.417969 27.253906 87.136719 27.253906 L 76.789062 27.253906 L 75.183594 30.484375 L 86.066406 30.484375 C 86.246094 30.660156 86.421875 31.199219 86.421875 32.457031 C 86.421875 34.605469 84.636719 36.21875 82.496094 36.21875 C 81.785156 36.21875 81.070312 36.042969 80 35.503906 C 79.464844 35.324219 79.109375 35.144531 78.574219 34.964844 L 76.074219 37.296875 C 76.609375 37.476562 76.96875 37.65625 77.503906 37.835938 C 79.644531 38.730469 80.890625 39.269531 82.496094 39.269531 C 84.460938 39.269531 86.246094 38.371094 87.671875 37.117188 C 89.457031 37.296875 92.488281 37.476562 95.519531 37.65625 C 99.089844 38.015625 102.300781 38.191406 104.085938 38.371094 C 104.976562 38.371094 105.691406 38.371094 106.582031 38.550781 C 108.007812 38.550781 109.4375 38.730469 110.6875 38.730469 C 117.285156 49.488281 120.675781 50.925781 133.523438 52.539062 C 134.414062 54.152344 135.304688 55.945312 136.019531 57.738281 L 136.019531 80.332031 C 135.484375 80.867188 133.523438 81.765625 132.988281 81.945312 L 122.105469 86.425781 C 120.675781 84.457031 120.140625 82.484375 120.675781 80.867188 "/>
<path style=" stroke:none;fill-rule:nonzero;fill:rgb(77.254902%,15.686275%,10.980392%);fill-opacity:1;" d="M 21.304688 60.964844 L 31.652344 63.65625 L 31.652344 60.25 L 21.304688 57.558594 Z M 17.914062 57.558594 L 7.566406 60.25 L 7.566406 63.65625 L 17.914062 60.964844 Z M 17.914062 64.371094 L 7.566406 67.0625 L 7.566406 70.46875 L 17.914062 67.78125 Z M 21.304688 67.78125 L 31.652344 70.46875 L 31.652344 67.0625 L 21.304688 64.371094 Z M 21.304688 74.59375 L 31.652344 77.28125 L 31.652344 73.875 L 21.304688 71.1875 Z M 17.914062 71.1875 L 7.566406 73.875 L 7.566406 77.28125 L 17.914062 74.59375 Z M 17.914062 71.1875 "/>
</g>
</svg>
